<svg width="128" height="128" viewBox="0 0 128 128" fill="none" xmlns="http://www.w3.org/2000/svg">
<g clip-path="url(#clip0_725_7)">
<path d="M108.8 0H19.2C8.59613 0 0 8.59613 0 19.2V108.8C0 119.404 8.59613 128 19.2 128H108.8C119.404 128 128 119.404 128 108.8V19.2C128 8.59613 119.404 0 108.8 0Z" fill="url(#paint0_linear_725_7)"/>
<path d="M49.7497 89.7504V49.7504C49.7497 48.2504 50.583 47.3338 52.2497 47.0004L86.7497 40.0004C88.583 39.6671 89.583 40.5004 89.7497 42.5004V73.0004C89.7497 75.5004 85.9997 77.1671 78.4997 78.0004C64.2497 80.2504 66.4997 104.25 85.9997 97.7504C93.4997 95.0004 94.7497 87.7504 94.7497 80.5004V22.0004C94.7497 22.0004 94.7497 17.0004 90.4997 18.2504L47.9997 27.0004C47.9997 27.0004 44.7497 27.5004 44.7497 31.5004V82.2504C44.7497 84.7504 40.9997 86.4171 33.4997 87.2504C19.2497 89.5004 21.4997 113.5 40.9997 107C48.4997 104.25 49.7497 97.0004 49.7497 89.7504Z" fill="white"/>
</g>
<defs>
<linearGradient id="paint0_linear_725_7" x1="64" y1="0" x2="64" y2="128" gradientUnits="userSpaceOnUse">
<stop stop-color="#FA5B73"/>
<stop offset="1" stop-color="#FA233B"/>
</linearGradient>
<clipPath id="clip0_725_7">
<rect width="128" height="128" fill="white"/>
</clipPath>
</defs>
</svg>
