<svg width="106" height="106" viewBox="0 0 106 106" fill="none" xmlns="http://www.w3.org/2000/svg">
<path d="M54.8734 0C44.9379 0.00176312 35.1892 2.60798 26.6673 7.54064C18.1454 12.4733 11.1699 19.5474 6.48484 28.0083C1.79983 36.4692 -0.418941 45.9995 0.0652132 55.5827C0.549367 65.1658 3.71828 74.4423 9.23393 82.4226C14.7496 90.4029 22.4051 96.7877 31.3837 100.896C40.3624 105.004 50.3275 106.681 60.216 105.749C70.1046 104.817 79.5456 101.31 87.532 95.6026C95.5184 89.8951 101.751 82.2011 105.564 73.3414C107.435 68.9954 102.951 64.6282 98.44 66.3984C90.7078 69.423 82.1226 69.7351 74.1768 67.2805C66.2311 64.8258 59.4275 59.7597 54.9489 52.963C50.4702 46.1662 48.5999 38.0687 49.663 30.0783C50.7262 22.0879 54.6555 14.71 60.7679 9.2273L61.1905 8.8033C64.2146 5.4643 61.8107 0.0424001 57.0304 0.0424001H55.5705L55.1973 0.0105999L54.8679 0H54.8734Z" fill="#181818"/>
</svg>
