<svg width="106" height="106" viewBox="0 0 106 106" fill="none" xmlns="http://www.w3.org/2000/svg">
<path fill-rule="evenodd" clip-rule="evenodd" d="M53 0C54.7571 0 56.4422 0.697989 57.6846 1.94042C58.927 3.18285 59.625 4.86794 59.625 6.625V13.25C59.625 15.0071 58.927 16.6922 57.6846 17.9346C56.4422 19.177 54.7571 19.875 53 19.875C51.2429 19.875 49.5578 19.177 48.3154 17.9346C47.073 16.6922 46.375 15.0071 46.375 13.25V6.625C46.375 4.86794 47.073 3.18285 48.3154 1.94042C49.5578 0.697989 51.2429 0 53 0ZM79.5 53C79.5 60.0282 76.708 66.7686 71.7383 71.7383C66.7686 76.708 60.0282 79.5 53 79.5C45.9718 79.5 39.2314 76.708 34.2617 71.7383C29.292 66.7686 26.5 60.0282 26.5 53C26.5 45.9718 29.292 39.2314 34.2617 34.2617C39.2314 29.292 45.9718 26.5 53 26.5C60.0282 26.5 66.7686 29.292 71.7383 34.2617C76.708 39.2314 79.5 45.9718 79.5 53ZM76.426 85.7937L81.1099 90.4776C82.3594 91.6844 84.0329 92.3522 85.7699 92.3371C87.507 92.322 89.1686 91.6253 90.3969 90.3969C91.6253 89.1686 92.322 87.507 92.3371 85.7699C92.3522 84.0329 91.6844 82.3594 90.4776 81.1099L85.7937 76.426C84.5443 75.2192 82.8708 74.5514 81.1337 74.5665C79.3967 74.5816 77.735 75.2784 76.5067 76.5067C75.2784 77.735 74.5816 79.3967 74.5665 81.1337C74.5514 82.8708 75.2192 84.5443 76.426 85.7937ZM90.471 15.5224C91.713 16.7647 92.4107 18.4495 92.4107 20.2063C92.4107 21.963 91.713 23.6478 90.471 24.8901L85.7937 29.574C85.1826 30.2068 84.4516 30.7115 83.6433 31.0587C82.835 31.4059 81.9657 31.5886 81.086 31.5963C80.2064 31.6039 79.334 31.4363 78.5198 31.1032C77.7056 30.7701 76.9659 30.2782 76.3439 29.6561C75.7218 29.0341 75.2299 28.2944 74.8968 27.4802C74.5637 26.666 74.3961 25.7936 74.4037 24.914C74.4114 24.0343 74.5941 23.165 74.9413 22.3567C75.2885 21.5484 75.7932 20.8174 76.426 20.2063L81.1099 15.5224C82.3522 14.2804 84.037 13.5827 85.7937 13.5827C87.5505 13.5827 89.2286 14.2804 90.471 15.5224ZM99.375 59.625C101.132 59.625 102.817 58.927 104.06 57.6846C105.302 56.4422 106 54.7571 106 53C106 51.2429 105.302 49.5578 104.06 48.3154C102.817 47.073 101.132 46.375 99.375 46.375H92.75C90.9929 46.375 89.3078 47.073 88.0654 48.3154C86.823 49.5578 86.125 51.2429 86.125 53C86.125 54.7571 86.823 56.4422 88.0654 57.6846C89.3078 58.927 90.9929 59.625 92.75 59.625H99.375ZM53 86.125C54.7571 86.125 56.4422 86.823 57.6846 88.0654C58.927 89.3078 59.625 90.9929 59.625 92.75V99.375C59.625 101.132 58.927 102.817 57.6846 104.06C56.4422 105.302 54.7571 106 53 106C51.2429 106 49.5578 105.302 48.3154 104.06C47.073 102.817 46.375 101.132 46.375 99.375V92.75C46.375 90.9929 47.073 89.3078 48.3154 88.0654C49.5578 86.823 51.2429 86.125 53 86.125ZM20.2063 29.574C20.8213 30.1895 21.5517 30.6779 22.3555 31.0112C23.1593 31.3445 24.0209 31.5162 24.8911 31.5165C25.7613 31.5168 26.623 31.3457 27.4271 31.013C28.2311 30.6802 28.9618 30.1924 29.5773 29.5773C30.1928 28.9622 30.6812 28.2319 31.0145 27.4281C31.3478 26.6243 31.5195 25.7627 31.5198 24.8925C31.5201 24.0223 31.349 23.1606 31.0163 22.3565C30.6836 21.5524 30.1957 20.8218 29.5806 20.2063L24.8901 15.5224C23.6406 14.3156 21.9671 13.6478 20.2301 13.6629C18.493 13.678 16.8314 14.3747 15.6031 15.6031C14.3747 16.8314 13.678 18.493 13.6629 20.2301C13.6478 21.9671 14.3156 23.6406 15.5224 24.8901L20.2063 29.574ZM29.574 85.7937L24.8901 90.4776C23.6406 91.6844 21.9671 92.3522 20.2301 92.3371C18.493 92.322 16.8314 91.6253 15.6031 90.3969C14.3747 89.1686 13.678 87.507 13.6629 85.7699C13.6478 84.0329 14.3156 82.3594 15.5224 81.1099L20.2063 76.426C21.4557 75.2192 23.1292 74.5514 24.8663 74.5665C26.6033 74.5816 28.265 75.2784 29.4933 76.5067C30.7216 77.735 31.4184 79.3967 31.4335 81.1337C31.4486 82.8708 30.7808 84.5443 29.574 85.7937ZM13.25 59.625C15.0071 59.625 16.6922 58.927 17.9346 57.6846C19.177 56.4422 19.875 54.7571 19.875 53C19.875 51.2429 19.177 49.5578 17.9346 48.3154C16.6922 47.073 15.0071 46.375 13.25 46.375H6.625C4.86794 46.375 3.18285 47.073 1.94042 48.3154C0.697989 49.5578 0 51.2429 0 53C0 54.7571 0.697989 56.4422 1.94042 57.6846C3.18285 58.927 4.86794 59.625 6.625 59.625H13.25Z" fill="#181818"/>
</svg>
