<svg width="256" height="256" viewBox="0 0 256 256" fill="none" xmlns="http://www.w3.org/2000/svg">
<path clip-rule="evenodd" d="M206.695 107.303L209.258 110.786L198.721 111.947L185.924 92.5724L169.395 75.376L146.333 47.8026L141.165 46.141L130.958 52.1563L122.986 63.1856L117.576 68.4101L87.9643 91.3395L78.5684 89.8884H74.867L49.9225 108.342L46.4158 109.719L45.825 109.045L49.5265 106.142L81.7004 73.3443L85.9711 80.02L87.3948 81.7614L101.062 71.0223L103.339 69.5711L114.728 60.2832L120.423 51.5757L124.81 46.141L126.531 41.7607H130.835L135.229 39.9659L141.165 33L146.333 36.7732L156.868 46.9318L164.555 57.3808L173.382 71.893L179.931 75.9565L183.917 77.4078L192.439 88.4991L196.16 93.9518L204.132 104.401L206.695 107.303ZM238.586 218.177L254.816 220.498V221.658L246.844 223.111L243.712 223.981H222.927L162.28 222.821L61.2028 221.079L0 220.477L0.556429 218.177L11.9454 213.533L13.6538 212.081L15.6469 208.307L25.3274 211.791H38.9943L43.5499 212.661L46.6818 214.984H64.6194L76.8626 213.823L98.7865 212.081L106.474 211.5L115.016 212.951L130.676 214.984H134.947L149.467 217.305L158.294 218.177L181.926 217.305L206.128 215.274H223.211L227.766 216.144L238.586 218.177ZM0.66 119.168H7.43941V131.541H8.12115L12.6281 119.168H19.3696L13.7643 133.815L19.559 150.391H12.5903L8.12115 136.783H7.43941V150.391H0.66V119.168ZM32.1517 119.168H21.85V150.391H28.6293V137.13H31.3563C34.159 137.13 36.3304 136.488 37.8707 135.203C39.4362 133.892 40.2189 131.567 40.2189 128.226C40.2189 125.297 39.5498 123.061 38.2115 121.519C36.8732 119.951 34.8533 119.168 32.1517 119.168ZM33.2501 131.348C32.8712 131.991 32.0885 132.312 30.9018 132.312H28.6293V124.025H30.864C32.1012 124.025 32.9091 124.358 33.288 125.027C33.6666 125.695 33.856 126.723 33.856 128.11C33.856 129.627 33.654 130.706 33.2501 131.348ZM46.7897 119.168H54.5161L60.2351 150.391H53.9858L52.9633 143.799H48.4563L47.3958 150.391H40.995L46.7897 119.168ZM52.3194 139.674L50.6908 127.494L49.0622 139.674H52.3194ZM76.7462 119.168H62.96V150.391H76.8219V145.727H69.7395V136.398H75.0796V131.618H69.7395V123.87H76.7462V119.168ZM79.2491 151.971C81.2185 152.022 82.6956 151.804 83.6804 151.316C84.6652 150.828 85.1575 149.954 85.1575 148.695C85.1575 148.309 85.0944 147.821 84.9681 147.23L78.075 119.168H84.3622L87.0132 132.004L88.2631 140.368L89.1721 131.965L91.4068 119.168H97.7696L91.4068 148.27C90.9018 150.66 90.2327 152.434 89.3994 153.59C88.5662 154.772 87.3794 155.569 85.8393 155.98C84.3243 156.391 82.1276 156.571 79.2491 156.52V151.971ZM114.428 119.168H100.225V150.391H107.004V124.294H114.428V119.168ZM126.049 150.855C122.741 150.855 120.38 149.994 118.966 148.272C117.552 146.524 116.845 143.955 116.845 140.563V128.96C116.845 125.568 117.552 123.024 118.966 121.328C120.38 119.606 122.741 118.745 126.049 118.745C129.381 118.745 131.755 119.606 133.169 121.328C134.608 123.049 135.328 125.593 135.328 128.96V140.563C135.328 143.955 134.608 146.524 133.169 148.272C131.755 149.994 129.381 150.855 126.049 150.855ZM126.049 145.959C127.008 145.959 127.639 145.638 127.942 144.995C128.245 144.327 128.397 143.428 128.397 142.297V127.264C128.397 126.107 128.245 125.208 127.942 124.566C127.639 123.923 127.008 123.602 126.049 123.602C125.139 123.602 124.534 123.936 124.231 124.604C123.927 125.247 123.776 126.133 123.776 127.264V142.297C123.776 143.428 123.915 144.327 124.193 144.995C124.47 145.638 125.089 145.959 126.049 145.959ZM140.029 144.955C139.499 145.366 138.514 145.559 137.075 145.534V150.39C137.529 150.416 138.173 150.429 139.007 150.429C141.809 150.429 143.816 149.954 145.028 149.003C146.266 148.026 147.074 146.562 147.452 144.608C147.831 142.63 148.185 139.238 148.513 134.432L149.119 124.448H152.49V150.39H159.231V119.168H142.983L141.999 133.121L141.885 134.702C141.607 138.531 141.355 141.101 141.128 142.411C140.926 143.696 140.559 144.544 140.029 144.955ZM163.67 119.168H170.448V132.351H171.964C177.974 132.351 180.978 135.357 180.978 141.371C180.978 143.786 180.561 145.662 179.728 146.998C178.921 148.309 177.809 149.208 176.395 149.697C175.007 150.159 173.314 150.391 171.319 150.391H163.67V119.168ZM171.358 145.881C172.545 145.881 173.404 145.534 173.933 144.84C174.463 144.146 174.729 143.054 174.729 141.563C174.729 140.15 174.489 139.058 174.009 138.287C173.529 137.516 172.621 137.13 171.282 137.13H170.448V145.881H171.358ZM191.115 119.168H184.335V150.391H191.115V136.745H195.848V150.391H202.665V119.168H195.848V131.811H191.115V119.168ZM207.07 119.168H213.85V132.351H215.364C221.398 132.351 224.416 135.357 224.416 141.371C224.416 143.786 223.999 145.662 223.166 146.998C222.358 148.309 221.26 149.208 219.87 149.697C218.482 150.159 216.778 150.391 214.758 150.391H207.07V119.168ZM226.992 119.168H233.77V150.391H226.992V119.168ZM214.796 145.881C215.982 145.881 216.841 145.534 217.372 144.84C217.901 144.146 218.166 143.054 218.166 141.563C218.166 140.15 217.927 139.058 217.447 138.287C216.968 137.516 216.058 137.13 214.719 137.13H213.85V145.881H214.796ZM243.5 119.168H238.16V150.391H242.287L250.28 132.197V150.391H255.733V119.168H251.339L243.5 137.054V119.168ZM243.083 115.121C244.169 116.149 245.62 116.663 247.438 116.663C249.256 116.663 250.696 116.136 251.756 115.082C252.843 114.029 253.385 112.551 253.385 110.649H249.901C249.901 111.6 249.699 112.307 249.295 112.769C248.916 113.232 248.297 113.463 247.438 113.463C246.556 113.463 245.923 113.245 245.545 112.808C245.166 112.345 244.977 111.626 244.977 110.649H241.493C241.493 112.577 242.022 114.067 243.083 115.121ZM0.66 164.723H7.43941V177.096H8.12115L12.6281 164.723H19.3696L13.7643 179.37L19.559 195.946H12.5903L8.12115 182.338H7.43941V195.946H0.66V164.723ZM60.026 164.723H52.2997L46.505 195.946H52.9057L53.9662 189.354H58.4732L59.4958 195.946H65.745L60.026 164.723ZM56.2008 173.049L57.8294 185.229H54.5723L56.2008 173.049ZM95.0152 164.723H102.287L105.658 182.878L109.294 164.723H116.3L116.831 195.946H112.021L111.453 175.169L107.892 195.946H103.613L99.8251 175.014L99.3707 195.946H94.485L95.0152 164.723ZM160.806 164.723H147.02V195.946H160.883V191.281H153.8V181.953H159.14V177.173H153.8V169.425H160.806V164.723ZM189.82 164.723H196.6V177.366H201.333V164.723H208.152V195.946H201.333V182.3H196.6V195.946H189.82V164.723ZM245.47 164.723H238.69V195.946H246.341C248.336 195.946 250.027 195.714 251.415 195.252C252.83 194.763 253.941 193.864 254.748 192.553C255.582 191.217 255.998 189.341 255.998 186.925C255.998 180.912 252.994 177.906 246.984 177.906H245.47V164.723ZM248.953 190.395C248.424 191.089 247.565 191.436 246.378 191.436H245.47V182.685H246.302C247.641 182.685 248.549 183.071 249.029 183.842C249.509 184.613 249.749 185.705 249.749 187.118C249.749 188.609 249.485 189.701 248.953 190.395Z"/>
</svg>
