<svg width="256" height="256" viewBox="0 0 256 256" fill="none" xmlns="http://www.w3.org/2000/svg">
<rect width="256" height="256" rx="128" fill="white"/>
<path fill-rule="evenodd" clip-rule="evenodd" d="M189.53 100.063L191.51 102.753L183.371 103.65L173.486 88.684L160.717 75.4004L142.903 54.1009L138.911 52.8174L131.026 57.4641L124.868 65.9838L120.689 70.0195L97.8155 87.7316L90.5575 86.6106H87.6983L68.4296 100.865L65.7208 101.929L65.2644 101.408L68.1237 99.166L92.9768 73.8309L96.2758 78.9877L97.3755 80.3328L107.933 72.0373L109.692 70.9163L118.49 63.7418L122.889 57.0155L126.277 52.8174L127.607 49.4338H130.932L134.325 48.0474L138.911 42.6665L142.903 45.5812L151.041 53.4283L156.979 61.4997L163.798 72.7099L168.856 75.8488L171.935 76.9698L178.518 85.5375L181.393 89.7494L187.551 97.8208L189.53 100.063ZM214.166 185.708L226.702 187.501V188.398L220.544 189.52L218.125 190.192H202.069L155.222 189.295L77.1436 187.95L29.8667 187.485L30.2965 185.708L39.0941 182.121L40.4137 181L41.9533 178.085L49.4312 180.776H59.9883L63.5073 181.448L65.9267 183.242H79.7828L89.2402 182.345L106.176 181L112.114 180.551L118.712 181.672L130.809 183.242H134.108L145.325 185.035L152.143 185.708L170.398 185.035L189.093 183.466H202.289L205.808 184.138L214.166 185.708ZM30.3778 109.228H35.6146V118.786H36.1412L39.6227 109.228H44.8303L40.5004 120.543L44.9765 133.347H39.5934L36.1412 122.836H35.6146V133.347H30.3778V109.228ZM54.7017 109.228H46.7441V133.347H51.9809V123.104H54.0873C56.2523 123.104 57.9296 122.607 59.1194 121.615C60.3287 120.602 60.9334 118.806 60.9334 116.225C60.9334 113.962 60.4165 112.235 59.3827 111.044C58.349 109.833 56.7886 109.228 54.7017 109.228ZM55.5502 118.637C55.2576 119.133 54.6529 119.382 53.7363 119.382H51.9809V112.98H53.707C54.6627 112.98 55.2868 113.238 55.5795 113.754C55.872 114.27 56.0183 115.064 56.0183 116.136C56.0183 117.307 55.8622 118.141 55.5502 118.637ZM66.0092 109.228H71.9776L76.3953 133.347H71.5679L70.7781 128.255H67.2966L66.4774 133.347H61.533L66.0092 109.228ZM70.2807 125.069L69.0227 115.66L67.7647 125.069H70.2807ZM89.1495 109.228H78.5002V133.347H89.208V129.744H83.7371V122.538H87.8621V118.846H83.7371V112.861H89.1495V109.228ZM91.0846 134.567C92.6058 134.607 93.7468 134.438 94.5075 134.061C95.2682 133.684 95.6485 133.009 95.6485 132.036C95.6485 131.739 95.5998 131.361 95.5023 130.905L90.1776 109.228H95.0342L97.0821 119.143L98.0475 125.605L98.7497 119.114L100.476 109.228H105.391L100.476 131.709C100.086 133.555 99.5689 134.925 98.9252 135.818C98.2817 136.731 97.3649 137.346 96.1752 137.664C95.005 137.982 93.308 138.121 91.0846 138.081V134.567ZM118.256 109.228H107.285V133.347H112.522V113.188H118.256V109.228ZM127.236 133.705C124.681 133.705 122.857 133.04 121.765 131.71C120.672 130.36 120.126 128.375 120.126 125.754V116.792C120.126 114.172 120.672 112.206 121.765 110.896C122.857 109.566 124.681 108.901 127.236 108.901C129.81 108.901 131.644 109.566 132.736 110.896C133.848 112.226 134.403 114.191 134.403 116.792V125.754C134.403 128.375 133.848 130.36 132.736 131.71C131.644 133.04 129.81 133.705 127.236 133.705ZM127.236 129.923C127.977 129.923 128.464 129.675 128.698 129.179C128.932 128.663 129.049 127.968 129.049 127.094V115.482C129.049 114.588 128.932 113.894 128.698 113.397C128.464 112.901 127.977 112.653 127.236 112.653C126.533 112.653 126.065 112.911 125.831 113.427C125.597 113.923 125.48 114.608 125.48 115.482V127.094C125.48 127.968 125.588 128.663 125.802 129.179C126.017 129.675 126.494 129.923 127.236 129.923ZM138.032 129.148C137.622 129.466 136.862 129.615 135.75 129.595V133.346C136.101 133.366 136.598 133.376 137.242 133.376C139.407 133.376 140.958 133.009 141.894 132.275C142.85 131.52 143.474 130.389 143.766 128.88C144.059 127.352 144.332 124.731 144.586 121.019L145.054 113.307H147.657V133.346H152.865V109.228H140.314L139.553 120.007L139.466 121.228C139.251 124.185 139.056 126.17 138.881 127.183C138.724 128.175 138.442 128.83 138.032 129.148ZM156.294 109.228H161.53V119.411H162.702C167.344 119.411 169.664 121.734 169.664 126.379C169.664 128.245 169.342 129.694 168.698 130.726C168.075 131.739 167.216 132.433 166.124 132.811C165.052 133.168 163.744 133.347 162.203 133.347H156.294V109.228ZM162.233 129.863C163.15 129.863 163.813 129.595 164.222 129.059C164.631 128.523 164.837 127.679 164.837 126.528C164.837 125.436 164.651 124.592 164.281 123.997C163.91 123.401 163.208 123.104 162.175 123.104H161.53V129.863H162.233ZM177.494 109.228H172.257V133.347H177.494V122.806H181.151V133.347H186.416V109.228H181.151V118.995H177.494V109.228ZM189.819 109.228H195.056V119.411H196.226C200.887 119.411 203.218 121.734 203.218 126.379C203.218 128.245 202.896 129.694 202.253 130.726C201.628 131.739 200.78 132.433 199.707 132.811C198.634 133.168 197.318 133.347 195.757 133.347H189.819V109.228ZM205.208 109.228H210.444V133.347H205.208V109.228ZM195.787 129.863C196.703 129.863 197.366 129.595 197.777 129.059C198.186 128.523 198.39 127.679 198.39 126.528C198.39 125.436 198.206 124.592 197.835 123.997C197.464 123.401 196.761 123.104 195.728 123.104H195.056V129.863H195.787ZM217.962 109.228H213.836V133.347H217.024L223.199 119.293V133.347H227.41V109.228H224.017L217.962 123.044V109.228ZM217.639 106.102C218.478 106.896 219.599 107.293 221.003 107.293C222.408 107.293 223.52 106.886 224.339 106.072C225.178 105.258 225.597 104.117 225.597 102.648H222.906C222.906 103.382 222.75 103.928 222.437 104.285C222.145 104.643 221.667 104.821 221.003 104.821C220.322 104.821 219.833 104.653 219.541 104.315C219.248 103.958 219.102 103.402 219.102 102.648H216.411C216.411 104.136 216.82 105.288 217.639 106.102ZM30.3778 144.417H35.6146V153.975H36.1412L39.6227 144.417H44.8303L40.5004 155.732L44.9765 168.536H39.5934L36.1412 158.025H35.6146V168.536H30.3778V144.417ZM76.2351 144.417H70.2669L65.7906 168.536H70.7349L71.5541 163.444H75.0356L75.8256 168.536H80.6528L76.2351 144.417ZM73.2803 150.849L74.5383 160.258H72.0223L73.2803 150.849ZM103.263 144.417H108.88L111.484 158.442L114.292 144.417H119.705L120.114 168.536H116.399L115.96 152.486L113.21 168.536H109.904L106.978 152.367L106.627 168.536H102.853L103.263 144.417ZM154.083 144.417H143.434V168.536H154.143V164.933H148.671V157.727H152.797V154.035H148.671V148.05H154.083V144.417ZM176.496 144.417H181.733V154.184H185.389V144.417H190.656V168.536H185.389V157.995H181.733V168.536H176.496V144.417ZM219.484 144.417H214.247V168.536H220.158C221.698 168.536 223.005 168.357 224.077 168C225.17 167.623 226.028 166.928 226.652 165.915C227.296 164.883 227.617 163.434 227.617 161.568C227.617 156.923 225.297 154.601 220.655 154.601H219.484V144.417ZM222.176 164.248C221.766 164.784 221.103 165.052 220.186 165.052H219.484V158.293H220.128C221.162 158.293 221.863 158.591 222.234 159.186C222.604 159.782 222.79 160.625 222.79 161.717C222.79 162.868 222.586 163.712 222.176 164.248Z" fill="#181818"/>
</svg>
