<svg width="128" height="128" viewBox="0 0 128 128" fill="none" xmlns="http://www.w3.org/2000/svg">
<path fill-rule="evenodd" clip-rule="evenodd" d="M128 64C128 99.3461 99.3461 128 64 128C28.6539 128 0 99.3461 0 64C0 28.6539 28.6539 0 64 0C99.3461 0 128 28.6539 128 64ZM42.8573 58.1373C36.4461 60.9365 29.8589 63.8128 23.8353 67.1307C20.6901 69.4336 24.8703 71.0627 28.7923 72.5907C29.4157 72.8336 30.0325 73.0739 30.6125 73.3139C31.0952 73.4624 31.5859 73.6187 32.0832 73.7771C36.4451 75.1667 41.3085 76.7163 45.5432 74.3853C52.4995 70.3893 59.064 65.7696 65.6237 61.1533C67.7728 59.6408 69.9213 58.1288 72.0829 56.6392C72.1843 56.5744 72.2984 56.5003 72.4235 56.4195C74.2648 55.2256 78.4064 52.5411 76.8744 56.2403C73.252 60.2019 69.3717 63.7085 65.4707 67.2347C62.8413 69.6109 60.2024 71.996 57.6264 74.5347C55.3829 76.3576 53.0531 80.0235 55.5653 82.5763C61.3517 86.6269 67.2285 90.5795 73.1019 94.5299C75.0131 95.8152 76.9243 97.1005 78.8315 98.3891C82.064 100.97 87.116 98.8821 87.8267 94.8493C88.1427 92.9941 88.46 91.1392 88.7773 89.284C90.5309 79.0315 92.2851 68.7752 93.8347 58.4893C94.0453 56.8757 94.284 55.2624 94.5229 53.6483C95.1019 49.736 95.6816 45.8189 95.8627 41.8856C95.396 37.9603 90.6365 38.8235 87.988 39.7061C74.3741 44.8864 60.8963 50.4507 47.4717 56.1131C45.9509 56.7867 44.4093 57.4597 42.8573 58.1373Z" fill="#181818"/>
</svg>
