<svg width="128" height="128" viewBox="0 0 128 128" fill="none" xmlns="http://www.w3.org/2000/svg">
<path d="M0 61.44C0 32.4768 0 17.9954 8.99768 8.99768C17.9954 0 32.4768 0 61.44 0H66.56C95.5232 0 110.005 0 119.002 8.99768C128 17.9954 128 32.4768 128 61.44V66.56C128 95.5232 128 110.005 119.002 119.002C110.005 128 95.5232 128 66.56 128H61.44C32.4768 128 17.9954 128 8.99768 119.002C0 110.005 0 95.5232 0 66.56V61.44Z" fill="#0077FF"/>
<path d="M68.2958 92C39.2546 92 22.6902 72.1051 22 39H36.5472C37.025 63.2983 47.7493 73.5906 56.244 75.7127V39H69.9422V59.956C78.3307 59.0541 87.1429 49.5045 90.116 39H103.814C101.531 51.9449 91.9745 61.4945 85.1787 65.4204C91.9745 68.6036 102.859 76.9329 107 92H91.9214C88.6828 81.9199 80.6136 74.1211 69.9422 73.0601V92H68.2958Z" fill="white"/>
</svg>
