<svg width="128" height="128" viewBox="0 0 128 128" fill="none" xmlns="http://www.w3.org/2000/svg">
<path fill-rule="evenodd" clip-rule="evenodd" d="M12 51.2C12 22.9222 35.2804 0 64 0C92.7196 0 116 22.9222 116 51.2C116 65.3338 110.184 78.1312 100.777 87.3958C98.3215 89.8149 94.9973 92.5161 91.4017 95.4378C81.219 103.712 68.8608 113.754 67.9 124.16C67.7051 126.271 66.1528 128 64 128C61.8472 128 60.2949 126.271 60.1 124.16C59.1392 113.754 46.781 103.712 36.5983 95.4378C33.0027 92.5161 29.6785 89.8149 27.223 87.3958C17.8162 78.1312 12 65.3338 12 51.2ZM82 50.5C82 60.1649 73.9413 68 64.0001 68C54.059 68 46 60.1649 46 50.5C46 40.835 54.059 33 64.0001 33C73.9413 33 82 40.835 82 50.5Z" fill="#181818"/>
</svg>
