<svg width="128" height="128" viewBox="0 0 128 128" fill="none" xmlns="http://www.w3.org/2000/svg">
<g clip-path="url(#clip0_725_2)">
<path d="M26.3632 13.0839C35.78 6.10612 46.9099 1.88798 58.5098 0.839844V20.0349C51.0115 21.007 43.8503 23.8778 37.7247 28.4168C30.0546 34.1003 24.414 42.0984 21.635 51.2314C18.856 60.3644 19.0858 70.1486 22.2904 79.1409C25.495 88.1335 31.5047 95.8585 39.4332 101.176C47.3617 106.493 56.7891 109.121 66.325 108.673C75.8609 108.225 85.0001 104.724 92.3954 98.6869C99.7899 92.6492 105.049 84.3951 107.396 75.142C109.034 68.6876 109.194 61.9853 107.911 55.524L124.03 42.5656L124.019 42.4611C128.37 54.4301 129.035 67.4514 125.894 79.8344C122.541 93.0533 115.028 104.845 104.464 113.47C93.8996 122.094 80.8436 127.095 67.2207 127.735C53.5981 128.375 40.1303 124.62 28.8039 117.024C17.4775 109.429 8.89213 98.3937 4.31418 85.5471C-0.263799 72.7008 -0.59202 58.7233 3.37792 45.6762C7.34787 32.629 15.4058 21.2032 26.3632 13.0839Z" fill="#FCCA00"/>
<path d="M111.876 22.0426L111.943 22.2117L101.172 39.3197C97.2544 33.5149 92.0056 28.6833 85.8624 25.2633V64.1956C85.8624 76.1405 76.1793 85.8238 64.2345 85.8238C52.2896 85.8238 42.6064 76.1405 42.6064 64.1956C42.6064 52.2508 52.2896 42.5675 64.2345 42.5675C68.7111 42.5675 72.8701 43.9277 76.3207 46.2571V1.73047C90.3625 4.4313 102.761 11.7492 111.876 22.0426Z" fill="#FC3F1D"/>
</g>
<defs>
<clipPath id="clip0_725_2">
<rect width="128" height="128" fill="white"/>
</clipPath>
</defs>
</svg>
