<svg width="128" height="128" viewBox="0 0 128 128" fill="none" xmlns="http://www.w3.org/2000/svg">
<path d="M64 0C35.2804 0 12 22.9222 12 51.2C12 65.3338 17.8162 78.1312 27.223 87.3958C36.6324 96.6656 58.8 110.08 60.1 124.16C60.2949 126.271 61.8472 128 64 128C66.1528 128 67.7051 126.271 67.9 124.16C69.2 110.08 91.3676 96.6656 100.777 87.3958C110.184 78.1312 116 65.3338 116 51.2C116 22.9222 92.7196 0 64 0Z" fill="#FF4433"/>
<path d="M64.0001 68C73.9413 68 82 60.1649 82 50.5C82 40.835 73.9413 33 64.0001 33C54.059 33 46 40.835 46 50.5C46 60.1649 54.059 68 64.0001 68Z" fill="white"/>
</svg>
