<svg width="128" height="128" viewBox="0 0 128 128" fill="none" xmlns="http://www.w3.org/2000/svg">
<rect x="22" y="25" width="85" height="78" rx="19" fill="white"/>
<path d="M63.9603 19C63.9603 19 23.9551 19 13.9143 21.6214C8.53813 23.1307 4.11126 27.5785 2.60909 33.0596C5.94438e-05 43.1478 0 64.0397 0 64.0397C0 64.0397 5.94438e-05 85.011 2.60909 94.9404C4.11126 100.421 8.45906 104.79 13.9143 106.299C24.0342 109 63.9603 109 63.9603 109C63.9603 109 104.045 109 114.085 106.379C119.541 104.869 123.888 100.58 125.312 95.0199C128 85.011 128 64.1192 128 64.1192C128 64.1192 128.079 43.1478 125.312 33.0596C123.888 27.5785 119.541 23.2102 114.085 21.7804C104.045 19.0001 63.9603 19 63.9603 19V19ZM51.2313 44.7373L84.5166 64.0397L51.2313 83.2627V44.7373V44.7373Z" fill="#FF0000"/>
</svg>
