<svg width="120" height="120" viewBox="0 0 120 120" fill="none" xmlns="http://www.w3.org/2000/svg">
<rect width="120" height="120" rx="60" fill="#E09C22"/>
<path fill-rule="evenodd" clip-rule="evenodd" d="M88.8424 46.9046L89.7703 48.1657L85.9552 48.5861L81.3215 41.5707L75.3363 35.344L66.9858 25.3599L65.1144 24.7582L61.4186 26.9364L58.5319 30.93L56.573 32.8217L45.851 41.1243L42.4488 40.5988H41.1085L32.0764 47.2806L30.8066 47.7794L30.5927 47.5351L31.933 46.4842L43.5829 34.6083L45.1293 37.0256L45.6448 37.6561L50.5934 33.7676L51.4182 33.2421L55.5421 29.879L57.604 26.7261L59.1925 24.7582L59.8158 23.1722H61.3742L62.965 22.5223L65.1144 20L66.9858 21.3662L70.8004 25.0446L73.5839 28.8281L76.7802 34.0828L79.1514 35.5542L80.5946 36.0797L83.6805 40.0958L85.0279 42.0701L87.9145 45.8536L88.8424 46.9046ZM100.39 87.0508L106.267 87.8913V88.3115L103.38 88.8375L102.246 89.1526H94.7199L72.7604 88.7323L36.161 88.1017L14 87.8836L14.2015 87.0508L18.3253 85.3692L18.9439 84.8438L19.6656 83.4773L23.1709 84.7386H28.1195L29.769 85.0536L30.9031 85.8947H37.3982L41.8313 85.4745L49.7698 84.8438L52.5534 84.6334L55.6463 85.1588L61.3166 85.8947H62.863L68.121 86.7352L71.3169 87.0508L79.874 86.7352L88.6371 85.9999H94.8228L96.4723 86.3149L100.39 87.0508ZM14.2396 51.2006H16.6943V55.681H16.9412L18.5731 51.2006H21.0142L18.9845 56.5045L21.0827 62.5063H18.5594L16.9412 57.5792H16.6943V62.5063H14.2396V51.2006ZM25.6414 51.2006H21.9113V62.5063H24.366V57.7049H25.3534C26.3682 57.7049 27.1545 57.4723 27.7122 57.007C28.2791 56.5324 28.5625 55.6903 28.5625 54.4807C28.5625 53.4199 28.3202 52.6104 27.8356 52.0521C27.3511 51.4845 26.6197 51.2006 25.6414 51.2006ZM26.0391 55.6113C25.902 55.8439 25.6185 55.9602 25.1889 55.9602H24.366V52.9593H25.1752C25.6231 52.9593 25.9157 53.0803 26.0529 53.3222C26.19 53.5642 26.2585 53.9363 26.2585 54.4388C26.2585 54.9878 26.1854 55.3786 26.0391 55.6113ZM30.9418 51.2006H33.7395L35.8103 62.5063H33.5475L33.1772 60.1195H31.5453L31.1613 62.5063H28.8436L30.9418 51.2006ZM32.9441 58.6261L32.3544 54.2155L31.7647 58.6261H32.9441ZM41.7888 51.2006H36.7969V62.5063H41.8162V60.8174H39.2517V57.4397H41.1854V55.709H39.2517V52.9035H41.7888V51.2006ZM42.6959 63.0785C43.409 63.0971 43.9438 63.018 44.3004 62.8413C44.657 62.6645 44.8352 62.3481 44.8352 61.8921C44.8352 61.7525 44.8124 61.5758 44.7667 61.3617L42.2707 51.2006H44.5473L45.5072 55.8485L45.9598 58.8773L46.2889 55.8346L47.0981 51.2006H49.402L47.0981 61.7386C46.9152 62.604 46.6729 63.246 46.3712 63.6647C46.0695 64.0928 45.6398 64.3812 45.0821 64.5301C44.5336 64.679 43.7381 64.7441 42.6959 64.7255V63.0785ZM55.4326 51.2006H50.2899V62.5063H52.7447V53.057H55.4326V51.2006ZM59.6417 62.6741C58.444 62.6741 57.5891 62.3624 57.0772 61.7389C56.5652 61.1062 56.3092 60.1757 56.3092 58.9474V54.7462C56.3092 53.518 56.5652 52.5968 57.0772 51.9827C57.5891 51.3592 58.444 51.0475 59.6417 51.0475C60.8485 51.0475 61.7079 51.3592 62.2199 51.9827C62.741 52.606 63.0016 53.5273 63.0016 54.7462V58.9474C63.0016 60.1757 62.741 61.1062 62.2199 61.7389C61.7079 62.3624 60.8485 62.6741 59.6417 62.6741ZM59.6417 60.9015C59.9891 60.9015 60.2177 60.7852 60.3274 60.5526C60.4371 60.3107 60.4919 59.9849 60.4919 59.5755V54.1321C60.4919 53.7134 60.4371 53.3877 60.3274 53.1551C60.2177 52.9224 59.9891 52.8061 59.6417 52.8061C59.3125 52.8061 59.0931 52.9271 58.9834 53.169C58.8737 53.4017 58.8188 53.7227 58.8188 54.1321V59.5755C58.8188 59.9849 58.8692 60.3107 58.9697 60.5526C59.0703 60.7852 59.2942 60.9015 59.6417 60.9015ZM64.7025 60.5383C64.5105 60.6871 64.154 60.7569 63.6328 60.7476V62.5062C63.7974 62.5156 64.0305 62.5202 64.3322 62.5202C65.3471 62.5202 66.0739 62.3481 66.5127 62.0038C66.9607 61.6502 67.2533 61.1198 67.3904 60.4126C67.5276 59.6961 67.6556 58.4679 67.7744 56.7278L67.9938 53.1128H69.2144V62.5062H71.6553V51.2006H65.7722L65.4156 56.2533L65.3745 56.8256C65.2739 58.212 65.1825 59.1425 65.1002 59.617C65.0271 60.0823 64.8945 60.3894 64.7025 60.5383ZM73.263 51.2006H75.7172V55.9742H76.2663C78.4423 55.9742 79.53 57.0628 79.53 59.2402C79.53 60.1149 79.3789 60.7942 79.0773 61.278C78.7851 61.7526 78.3824 62.0782 77.8705 62.2551C77.3679 62.4225 76.755 62.5063 76.0327 62.5063H73.263V51.2006ZM76.0467 60.8732C76.4766 60.8732 76.7875 60.7476 76.9792 60.4964C77.171 60.2452 77.2674 59.8497 77.2674 59.31C77.2674 58.7982 77.1803 58.4028 77.0065 58.1236C76.8328 57.8444 76.504 57.7049 76.0194 57.7049H75.7172V60.8732H76.0467ZM83.2004 51.2006H80.7455V62.5063H83.2004V57.5653H84.9145V62.5063H87.3827V51.2006H84.9145V55.7788H83.2004V51.2006ZM88.9776 51.2006H91.4324V55.9742H91.9809C94.1656 55.9742 95.2585 57.0628 95.2585 59.2402C95.2585 60.1149 95.1075 60.7942 94.8059 61.278C94.5131 61.7526 94.1156 62.0782 93.6125 62.2551C93.1099 62.4225 92.4928 62.5063 91.7613 62.5063H88.9776V51.2006ZM96.1911 51.2006H98.6454V62.5063H96.1911V51.2006ZM91.7752 60.8732C92.2046 60.8732 92.5155 60.7476 92.7078 60.4964C92.8995 60.2452 92.9954 59.8497 92.9954 59.31C92.9954 58.7982 92.9088 58.4028 92.7351 58.1236C92.5614 57.8444 92.2319 57.7049 91.7473 57.7049H91.4324V60.8732H91.7752ZM102.169 51.2008H100.236V62.5064H101.73L104.624 55.9185V62.5064H106.599V51.2008H105.008L102.169 57.6771V51.2008ZM102.018 49.7353C102.412 50.1075 102.937 50.2936 103.595 50.2936C104.254 50.2936 104.775 50.1028 105.159 49.7213C105.552 49.3398 105.749 48.8048 105.749 48.1162H104.487C104.487 48.4605 104.414 48.7164 104.268 48.8839C104.13 49.0514 103.906 49.1351 103.595 49.1351C103.276 49.1351 103.047 49.056 102.91 48.8978C102.773 48.7303 102.704 48.4698 102.704 48.1162H101.443C101.443 48.8141 101.634 49.3537 102.018 49.7353ZM14.2396 67.6956H16.6943V72.176H16.9412L18.5731 67.6956H21.0142L18.9845 72.9995L21.0827 79.0012H18.5594L16.9412 74.0742H16.6943V79.0012H14.2396V67.6956ZM35.7352 67.6956H32.9376L30.8393 79.0012H33.157L33.541 76.6145H35.1729L35.5432 79.0012H37.806L35.7352 67.6956ZM34.3501 70.7105L34.9398 75.121H33.7604L34.3501 70.7105ZM48.4043 67.6956H51.0374L52.258 74.2696L53.5745 67.6956H56.1116L56.3035 79.0012H54.5619L54.3562 71.4781L53.0671 79.0012H51.5174L50.146 71.4223L49.9814 79.0012H48.2123L48.4043 67.6956ZM72.2265 67.6956H67.2348V79.0012H72.2544V77.3123H69.6896V73.9346H71.6234V72.2039H69.6896V69.3984H72.2265V67.6956ZM82.7324 67.6956H85.1872V72.2737H86.9013V67.6956H89.3701V79.0012H86.9013V74.0602H85.1872V79.0012H82.7324V67.6956ZM102.883 67.6956H100.428V79.0012H103.199C103.921 79.0012 104.533 78.9175 105.036 78.75C105.549 78.5732 105.951 78.2475 106.243 77.7729C106.545 77.289 106.696 76.6098 106.696 75.7351C106.696 73.5578 105.608 72.4691 103.432 72.4691H102.883V67.6956ZM104.145 76.9913C103.953 77.2425 103.642 77.3682 103.212 77.3682H102.883V74.1998H103.185C103.669 74.1998 103.998 74.3394 104.172 74.6186C104.346 74.8977 104.433 75.2931 104.433 75.8049C104.433 76.3446 104.337 76.7401 104.145 76.9913Z" fill="white"/>
</svg>
