<svg width="70" height="70" viewBox="0 0 70 70" fill="none" xmlns="http://www.w3.org/2000/svg">
<path fill-rule="evenodd" clip-rule="evenodd" d="M62 35C62 49.9116 49.9116 62 35 62C20.0884 62 8 49.9116 8 35C8 20.0884 20.0884 8 35 8C49.9116 8 62 20.0884 62 35ZM26.0804 32.5267C23.3757 33.7076 20.5967 34.921 18.0555 36.3207C16.7286 37.2923 18.4922 37.9796 20.1467 38.6242C20.4098 38.7267 20.67 38.828 20.9147 38.9293C21.1183 38.992 21.3253 39.0579 21.5351 39.1247C23.3753 39.7109 25.427 40.3647 27.2135 39.3813C30.1482 37.6955 32.9176 35.7465 35.685 33.7991C36.5917 33.161 37.4981 32.5231 38.41 31.8947C38.4527 31.8673 38.5009 31.836 38.5537 31.802C39.3305 31.2983 41.0777 30.1658 40.4314 31.7264C38.9032 33.3977 37.2662 34.877 35.6204 36.3646C34.5112 37.3671 33.3979 38.3733 32.3111 39.4443C31.3647 40.2134 30.3818 41.7599 31.4416 42.8369C33.8828 44.5457 36.362 46.2132 38.8399 47.8798C39.6461 48.422 40.4524 48.9643 41.257 49.5079C42.6208 50.5967 44.7521 49.7159 45.0519 48.0146C45.1852 47.2319 45.3191 46.4493 45.4529 45.6667C46.1927 41.3414 46.9328 37.0145 47.5865 32.6752C47.6754 31.9945 47.7761 31.3138 47.8769 30.6329C48.1211 28.9824 48.3657 27.3299 48.4421 25.6705C48.2452 24.0145 46.2373 24.3787 45.1199 24.751C39.3766 26.9365 33.6906 29.2839 28.0271 31.6727C27.3855 31.9569 26.7352 32.2408 26.0804 32.5267Z" fill="white"/>
</svg>
