<svg width="70" height="70" viewBox="0 0 70 70" fill="none" xmlns="http://www.w3.org/2000/svg">
<path fill-rule="evenodd" clip-rule="evenodd" d="M38.4329 54.5229C38.4329 54.5229 39.6963 54.3845 40.3433 53.6993C40.9356 53.0714 40.9151 51.8865 40.9151 51.8865C40.9151 51.8865 40.8363 46.3537 43.4418 45.5368C46.0096 44.7334 49.3066 50.8873 52.8056 53.2537C55.4487 55.0428 57.455 54.6512 57.455 54.6512L66.8051 54.5229C66.8051 54.5229 71.6942 54.2259 69.3763 50.435C69.1846 50.1244 68.024 47.6297 62.4262 42.5054C56.5614 37.1415 57.3489 38.009 64.4085 28.7292C68.7087 23.0783 70.4274 19.6283 69.8899 18.1532C69.3798 16.7421 66.2162 17.1168 66.2162 17.1168L55.6918 17.181C55.6918 17.181 54.9112 17.0763 54.3326 17.4173C53.7677 17.7514 53.4013 18.5312 53.4013 18.5312C53.4013 18.5312 51.7374 22.9028 49.5154 26.6228C44.8284 34.4679 42.9556 34.8831 42.1887 34.397C40.405 33.2594 40.85 29.8331 40.85 27.3992C40.85 19.7937 42.0209 16.624 38.5733 15.8037C37.4298 15.5302 36.5875 15.3513 33.6603 15.3209C29.9045 15.2838 26.7273 15.3344 24.9264 16.202C23.7281 16.7792 22.8037 18.0688 23.3686 18.143C24.0636 18.2342 25.6385 18.5616 26.4739 19.6823C27.5524 21.1305 27.5147 24.3779 27.5147 24.3779C27.5147 24.3779 28.1344 33.3303 26.0665 34.4409C24.6491 35.2038 22.7044 33.6476 18.5241 26.5283C16.3843 22.8825 14.7683 18.8519 14.7683 18.8519C14.7683 18.8519 14.4567 18.0991 13.8987 17.6941C13.2242 17.2046 12.2827 17.0527 12.2827 17.0527L2.28203 17.1168C2.28203 17.1168 0.779024 17.1573 0.227808 17.8021C-0.261782 18.3726 0.190147 19.5574 0.190147 19.5574C0.190147 19.5574 8.02015 37.6208 16.8875 46.7251C25.0188 55.0698 34.2491 54.5229 34.2491 54.5229H38.4329Z" fill="white"/>
</svg>
