<svg width="70" height="70" viewBox="0 0 70 70" fill="none" xmlns="http://www.w3.org/2000/svg">
<path fill-rule="evenodd" clip-rule="evenodd" d="M11.8146 48.1344L8 62L22.2531 58.2792C26.1804 60.4113 30.6018 61.535 35.1012 61.5368H35.1128C49.9309 61.5368 61.9935 49.5316 62 34.7787C62.0025 27.6283 59.2077 20.9056 54.1322 15.8477C49.0552 10.7899 42.3048 8.00349 35.1128 8C20.2922 8 8.23163 20.0032 8.2256 34.7571C8.22409 39.473 9.46187 44.0767 11.8146 48.1344ZM12.7653 34.7585C12.7698 22.4962 22.7945 12.5199 35.1214 12.5199C41.0908 12.5224 46.7011 14.8385 50.9205 19.042C55.1399 23.2456 57.462 28.8339 57.4598 34.7766C57.4548 47.0399 47.4301 57.0173 35.1127 57.0173H35.1042C31.0933 57.0152 27.1604 55.9435 23.7301 53.9166L22.9133 53.4348L14.4552 55.6426L16.7134 47.436L16.1816 46.5947C13.9447 43.0534 12.7635 38.9606 12.7653 34.7585Z" fill="white"/>
<path fill-rule="evenodd" clip-rule="evenodd" d="M28.3932 23.5706C27.8896 22.4571 27.3598 22.4346 26.8814 22.415C26.4897 22.3985 26.0415 22.3995 25.5938 22.3995C25.1456 22.3995 24.418 22.5669 23.8026 23.2362C23.1867 23.9055 21.4509 25.5232 21.4509 28.8139C21.4509 32.1046 23.8585 35.284 24.1939 35.7307C24.5298 36.1768 28.8413 43.1452 35.6703 45.8258C41.345 48.0537 42.4997 47.6105 43.7319 47.4992C44.9637 47.3879 47.7066 45.8814 48.2661 44.3198C48.8261 42.7582 48.8261 41.4202 48.6584 41.1404C48.4902 40.8612 48.0425 40.6943 47.3702 40.3599C46.6985 40.0255 43.3956 38.4072 42.7797 38.1841C42.1638 37.961 41.7162 37.8497 41.268 38.519C40.8203 39.1883 39.5337 40.6943 39.1414 41.1404C38.7496 41.5871 38.3578 41.6428 37.6856 41.3084C37.0138 40.973 34.85 40.2676 32.2833 37.9891C30.2861 36.2164 28.938 34.0272 28.5457 33.3579C28.154 32.6886 28.5039 32.3267 28.8408 31.9933C29.1425 31.6935 29.5126 31.2122 29.849 30.8217C30.1839 30.4312 30.2962 30.1524 30.5197 29.7068C30.7438 29.2601 30.632 28.8696 30.4639 28.5352C30.2962 28.2008 28.9904 24.8931 28.3932 23.5706Z" fill="white"/>
</svg>
