<svg width="70" height="70" viewBox="0 0 70 70" fill="none" xmlns="http://www.w3.org/2000/svg">
<path d="M34.9783 10.3906C34.9783 10.3906 13.1004 10.3906 7.60939 11.8242C4.66929 12.6496 2.24834 15.082 1.42684 18.0794C3.25083e-05 23.5965 0 35.0217 0 35.0217C0 35.0217 3.25083e-05 46.4904 1.42684 51.9206C2.24834 54.918 4.62605 57.3069 7.60939 58.1323C13.1437 59.6093 34.9783 59.6094 34.9783 59.6094C34.9783 59.6094 56.8995 59.6094 62.3905 58.1758C65.3738 57.3504 67.7515 55.0049 68.5298 51.964C69.9998 46.4904 69.9999 35.0652 69.9999 35.0652C69.9999 35.0652 70.0431 23.5965 68.5298 18.0794C67.7515 15.082 65.3738 12.6931 62.3905 11.9111C56.8995 10.3907 34.9783 10.3906 34.9783 10.3906V10.3906ZM28.0171 24.4657L46.22 35.0217L28.0171 45.5343V24.4657V24.4657Z" fill="white"/>
</svg>
